<svg width="801" height="768" viewBox="0 0 801 768" fill="none" xmlns="http://www.w3.org/2000/svg">
<path d="M133.552 1.00335e-05C118.797 -0.0123725 106.828 11.438 106.826 25.568V195.056L11.1337 260.449C4.14471 265.252 0.000153525 272.985 0 281.223V741.471C0.00146984 755.601 11.9705 767.052 26.7261 767.039H774.3C789.045 767.038 800.999 755.592 801 741.471V281.223C800.976 272.967 796.79 265.23 789.762 260.449L694.174 195.006V153.433C694.194 146.651 691.398 140.139 686.404 135.331L552.852 7.44069C547.856 2.68238 541.098 0.00786707 534.052 1.00335e-05H133.552ZM160.252 51.136H507.326V153.433C507.313 167.573 519.286 179.038 534.052 179.026H640.774V335.779L445.843 460.249H355.183L160.252 335.804V51.136ZM560.752 87.3906L603.018 127.865H560.752V87.3906ZM694.174 257.852L727.34 280.524L694.174 301.697V257.852ZM106.826 257.878V301.698L73.6857 280.549L106.826 257.878ZM53.4261 329.063L302.617 488.089L53.4261 686.84V329.063ZM747.6 329.063V686.915L498.409 488.089L747.6 329.063ZM356.774 511.385H444.226L700.562 715.878H100.438L356.774 511.385Z" fill="black"/>
</svg>
