<svg width="1300" height="738" viewBox="0 0 1300 738" fill="none" xmlns="http://www.w3.org/2000/svg">
<path d="M671.399 266.06H638.289V323.954H671.399V266.06Z" fill="black"/>
<path d="M671.399 374.617H638.289V422.635H671.399V374.617Z" fill="black"/>
<path d="M569.588 533.834C566.696 541.546 559.097 545.733 551.502 544.391C547.447 543.673 543.286 543.295 539.043 543.295C503.237 543.295 473.04 568.998 463.209 604.266C461.322 611.025 455.409 615.791 448.884 615.567C441.869 615.321 434.488 616.582 426.796 620.074C405.943 629.546 391.149 651.229 390.862 675.692C390.464 709.611 415.674 737.25 446.9 737.427L865.084 737.299C895.409 735.806 919.513 708.452 918.822 675.099C918.327 650.871 903.612 629.514 882.971 620.108C875.253 616.59 867.851 615.321 860.81 615.567C854.287 615.791 848.372 611.025 846.485 604.266C836.654 568.995 806.462 543.295 770.656 543.295C767.68 543.295 764.751 543.488 761.87 543.856C755.046 544.717 748.803 540.252 746.191 533.375C731.913 495.82 697.84 475.588 657.977 475.588C617.952 475.591 583.764 496.032 569.588 533.834Z" fill="black"/>
<path d="M263.357 89.4089C258.965 87.7229 253.976 88.8947 250.811 92.3659L204.041 143.719C200.063 148.088 200.099 154.764 204.122 159.089L250.887 209.395C254.073 212.825 259.04 213.958 263.412 212.256C267.772 210.544 270.646 206.342 270.646 201.667V187.404V166.713V133.702V112.1V100.01C270.649 95.3178 267.749 91.1053 263.357 89.4089Z" fill="black"/>
<path d="M1058.81 92.2917C1055.61 88.8622 1050.65 87.7295 1046.28 89.4312C1041.92 91.1433 1039.04 95.3453 1039.04 100.02V113.62V134.975V167.985V188.919V201.674C1039.04 206.369 1041.94 210.579 1046.34 212.278C1050.73 213.964 1055.71 212.792 1058.88 209.316L1105.65 157.963C1109.63 153.599 1109.59 146.923 1105.57 142.598L1058.81 92.2917Z" fill="black"/>
<path d="M1280.86 0H883.052C872.475 0 863.897 8.54754 863.897 19.0891V134.681L436.15 133.973V19.6058C436.15 9.03821 427.541 0.516767 416.948 0.516767H19.1436C8.60861 0.516767 0 9.04082 0 19.6058V292.13C0 302.635 8.60861 311.219 19.1436 311.219H191.523L185.403 344.128L179.682 375.163C179.022 378.644 181.731 381.886 185.285 381.886H250.838C254.395 381.886 257.101 378.644 256.442 375.163L250.72 344.128L244.601 311.219H416.946C427.538 311.219 436.147 302.635 436.147 292.13V166.992L638.288 167.326V167.38V182.226V215.401H671.399V182.226V167.378L863.895 167.694V291.613C863.895 302.16 872.472 310.702 883.049 310.702H1055.41L1049.28 343.632L1043.56 374.667C1042.9 378.154 1045.61 381.39 1049.17 381.39H1114.72C1118.27 381.39 1120.98 378.154 1120.32 374.667L1114.6 343.632L1108.48 310.702H1280.86C1291.43 310.702 1300 302.16 1300 291.613V19.0917C1300.01 8.55015 1291.44 0 1280.86 0ZM406.675 133.929L303.754 133.757V166.772L406.675 166.945V247.74C406.675 252.767 402.584 256.844 397.546 256.844H38.5935C33.5524 256.844 29.464 252.764 29.464 247.74V43.4372C29.464 38.4104 33.555 34.3337 38.5935 34.3337H397.546C402.587 34.3337 406.675 38.413 406.675 43.4372V133.929V133.929ZM1270.56 247.247C1270.56 252.279 1266.47 256.351 1261.43 256.351H902.478C897.437 256.351 893.348 252.276 893.348 247.247V167.746L1005.93 167.929V134.918L893.348 134.73V42.9413C893.348 37.9145 897.439 33.8378 902.478 33.8378H1261.43C1266.48 33.8378 1270.56 37.9171 1270.56 42.9413V247.247V247.247Z" fill="black"/>
</svg>
