<svg width="801" height="919" viewBox="0 0 801 919" fill="none" xmlns="http://www.w3.org/2000/svg">
<path d="M400.5 0L0 86.9892V319.927C0 512.27 92.7988 693.981 249.091 808.033L400.5 918.219L551.909 808.033C708.201 694.947 801 512.27 801 319.927V86.9892L400.5 0ZM733.599 319.927C733.599 490.039 650.568 652.419 511.859 753.907L400.5 835.096L289.141 753.907C150.432 653.386 67.4012 491.006 67.4012 319.927V141.116L400.5 68.6248L733.599 141.116V319.927Z" fill="black"/>
<path d="M295.978 307.361V358.588H269.604C259.835 358.588 251.044 366.32 251.044 376.952V552.864C251.044 562.529 258.859 571.228 269.604 571.228H531.394C541.162 571.228 549.954 563.496 549.954 552.864V376.952C549.954 367.287 542.139 358.588 531.394 358.588H505.02V307.361C505.02 250.335 458.132 203.941 400.499 203.941C342.866 203.941 295.978 250.335 295.978 307.361ZM422.966 505.503C424.92 511.302 420.035 517.102 414.174 517.102H386.823C380.962 517.102 376.078 511.302 378.032 505.503L386.823 472.641C376.078 467.808 369.24 457.176 369.24 444.611C369.24 427.213 383.893 413.681 400.499 413.681C418.082 413.681 431.757 428.179 431.757 444.611C431.757 457.176 424.92 466.841 414.174 472.641L422.966 505.503ZM453.248 307.361V358.588H347.75V307.361C347.75 278.365 371.194 255.168 400.499 255.168C429.804 255.168 453.248 279.331 453.248 307.361Z" fill="black"/>
</svg>
