<svg width="801" height="701" viewBox="0 0 801 701" fill="none" xmlns="http://www.w3.org/2000/svg">
<path d="M801 242.21V35.0552C801 15.6924 785.265 0 765.838 0H35.1712C15.7443 0 0 15.6924 0 35.0552V535.374C0 554.727 15.7443 570.429 35.1712 570.429H351.75L340.501 630.885L329.992 687.862C328.78 694.254 333.756 700.205 340.285 700.205H460.687C467.22 700.205 472.191 694.254 470.979 687.862L460.47 630.885L449.221 570.429H765.834C785.26 570.429 800.995 554.727 800.995 535.374V302.814L790.823 306.662L801 242.21L801 243.614L800.995 302.814L793.226 306.662L801 242.21C801 242.21 790.823 306.662 800.995 302.814L801 243.614L801 242.21L790.823 306.662H793.226L801 242.21ZM746.911 242.114V302.728V453.917C746.911 463.155 739.398 470.63 730.143 470.63H70.8471C61.588 470.63 54.0788 463.15 54.0788 453.917V78.8456C54.0788 69.6074 61.5928 62.1325 70.8471 62.1325H730.143C739.402 62.1325 746.911 69.6122 746.911 78.8456V242.114ZM801 243.614L800.995 302.814L793.226 306.662L801 243.614L800.995 302.814L793.226 306.662L801 243.614Z" fill="black"/>
</svg>
