<svg width="801" height="904" viewBox="0 0 801 904" fill="none" xmlns="http://www.w3.org/2000/svg">
<path d="M801 224.191V653.08C801 725.861 751.906 788.244 676.974 835.032C519.358 928.608 263.555 926.008 108.523 824.635C41.3419 780.446 0 720.662 0 653.08V224.191C0 159.208 46.5097 102.023 124.026 60.4342C279.058 -20.1447 521.942 -20.1447 676.974 60.4342C751.906 102.023 801 159.208 801 224.191ZM56.8452 341.161V439.935C56.8452 486.723 90.4355 533.511 147.281 567.302C286.81 650.48 516.774 653.08 653.719 567.302C710.564 533.511 744.155 486.723 744.155 439.935V341.161C723.484 359.356 702.813 374.952 676.974 387.949C521.942 468.528 279.058 468.528 124.026 387.949C98.1871 374.952 74.9323 359.356 56.8452 341.161ZM648.552 112.421C514.19 39.6397 286.81 39.6397 149.865 112.421C93.0194 141.013 56.8452 182.602 56.8452 224.191C56.8452 268.38 93.0194 307.37 149.865 338.562C286.81 411.343 514.19 411.343 648.552 338.562C707.981 307.37 744.155 268.38 744.155 224.191C744.155 182.602 707.981 141.013 648.552 112.421ZM56.8452 567.302V653.08C56.8452 699.867 87.8516 744.056 139.529 777.847C276.474 866.224 509.023 866.224 648.552 785.645C707.981 749.254 744.155 702.467 744.155 653.08V567.302C726.068 585.497 707.981 601.093 687.31 614.09C532.277 712.864 273.89 712.864 118.858 616.689C95.6032 601.093 74.9323 585.497 56.8452 567.302Z" fill="black"/>
</svg>
