<svg width="801" height="653" viewBox="0 0 801 653" fill="none" xmlns="http://www.w3.org/2000/svg">
<path d="M764.591 0H36.4091C26.7528 0 17.492 3.82211 10.664 10.6255C3.83595 17.4289 0 26.6563 0 36.2778V616.722C0 626.344 3.83595 635.571 10.664 642.375C17.492 649.178 26.7528 653 36.4091 653H764.591C774.247 653 783.508 649.178 790.336 642.375C797.164 635.571 801 626.344 801 616.722V36.2778C801 26.6563 797.164 17.4289 790.336 10.6255C783.508 3.82211 774.247 0 764.591 0ZM72.8182 72.5556H582.545V145.111H72.8182V72.5556ZM728.182 580.444H72.8182V217.667H728.182V580.444ZM728.182 145.111H655.364V72.5556H728.182V145.111ZM400.5 544.167C488.67 544.167 558.936 465.89 585.061 432.215C592.422 422.717 596.414 411.056 596.414 399.056C596.414 387.056 592.422 375.394 585.061 365.896V365.878C558.936 332.221 488.67 253.944 400.5 253.944C312.33 253.944 242.064 332.221 215.939 365.896C208.576 375.397 204.582 387.061 204.582 399.065C204.582 411.068 208.576 422.733 215.939 432.233C242.064 465.89 312.33 544.167 400.5 544.167ZM400.5 326.5C449.523 326.5 496.181 373.141 518.305 399.056C496.181 424.971 449.523 471.611 400.5 471.611C351.477 471.611 304.811 424.952 282.695 399.056C304.819 373.141 351.477 326.5 400.5 326.5ZM364.091 399.056C364.091 391.88 366.226 384.867 370.227 378.901C374.228 372.935 379.914 368.285 386.567 365.539C393.22 362.793 400.54 362.075 407.603 363.475C414.666 364.875 421.153 368.33 426.245 373.403C431.337 378.477 434.805 384.941 436.21 391.978C437.614 399.015 436.893 406.31 434.138 412.938C431.382 419.567 426.715 425.233 420.728 429.219C414.74 433.206 407.701 435.333 400.5 435.333C390.844 435.333 381.583 431.511 374.755 424.708C367.927 417.904 364.091 408.677 364.091 399.056Z" fill="black"/>
</svg>
