<svg width="602" height="580" viewBox="0 0 602 580" fill="none" xmlns="http://www.w3.org/2000/svg">
<path d="M548.137 0H53.8632C24.08 0 0 36.7333 0 82.1667V497.833C0 543.267 24.08 580 53.8632 580H548.137C577.92 580 602 543.267 602 497.833V82.1667C602 36.7333 577.92 0 548.137 0ZM34.2189 497.833V82.1667C34.2189 76.3667 35.4863 70.5667 37.3874 65.7333L228.76 313.2L34.8526 505.567C34.2189 502.667 34.2189 500.733 34.2189 497.833ZM325.08 320.933C314.307 334.467 297.832 334.467 287.059 320.933L79.8442 52.2H537.364L325.08 320.933ZM255.375 348L264.88 360.567C276.92 376.033 291.495 383.767 306.069 383.767C320.644 383.767 334.585 376.033 346.625 361.533L352.328 354.767L526.592 528.767H75.4084L255.375 348ZM379.577 319L567.781 80.2333C567.781 81.2 567.781 81.2 567.781 82.1667V497.833C567.781 500.733 567.781 503.633 567.147 505.567L379.577 319Z" fill="white"/>
</svg>
