<svg width="330" height="579" viewBox="0 0 330 579" fill="none" xmlns="http://www.w3.org/2000/svg">
<path d="M203.836 579H110.727C95.1754 579 82.5244 566.402 82.5244 550.914V341.776H28.2031C12.651 341.776 0 329.173 0 313.69V224.074C0 208.586 12.651 195.988 28.2031 195.988H82.5244V151.111C82.5244 106.614 96.555 68.7571 123.095 41.6386C149.754 14.3964 187.011 0 230.837 0L301.846 0.114852C317.371 0.141357 330 12.7398 330 28.2008V111.407C330 126.895 317.353 139.493 301.806 139.493L253.996 139.511C239.416 139.511 235.703 142.422 234.909 143.314C233.6 144.794 232.043 148.977 232.043 160.529V195.983H298.213C303.194 195.983 308.02 197.207 312.168 199.513C321.115 204.491 326.678 213.905 326.678 224.078L326.642 313.694C326.642 329.173 313.991 341.771 298.439 341.771H232.043V550.914C232.043 566.402 219.388 579 203.836 579ZM116.609 545.057H197.954V326.58C197.954 316.239 206.404 307.828 216.784 307.828H292.557L292.588 229.931H216.78C206.4 229.931 197.954 221.52 197.954 211.179V160.529C197.954 147.268 199.307 132.187 209.358 120.852C221.504 107.149 240.644 105.567 253.987 105.567L295.915 105.55V34.0495L230.81 33.9435C160.378 33.9435 116.609 78.8421 116.609 151.111V211.179C116.609 221.516 108.164 229.931 97.7837 229.931H34.085V307.828H97.7837C108.164 307.828 116.609 316.239 116.609 326.58V545.057Z" fill="white"/>
</svg>
