<svg width="581" height="581" viewBox="0 0 581 581" fill="none" xmlns="http://www.w3.org/2000/svg">
<path d="M494.462 0.57251H86.702C63.9138 0.636253 42.0771 9.71708 25.9634 25.8308C9.84965 41.9446 0.768822 63.7812 0.705078 86.5694L0.705078 494.33C0.768822 517.118 9.84965 538.955 25.9634 555.068C42.0771 571.182 63.9138 580.263 86.702 580.327H494.462C517.251 580.263 539.087 571.182 555.201 555.068C571.315 538.955 580.396 517.118 580.459 494.33V86.5694C580.396 63.7812 571.315 41.9446 555.201 25.8308C539.087 9.71708 517.251 0.636253 494.462 0.57251V0.57251ZM532.146 494.33C532.146 504.324 528.176 513.909 521.109 520.977C514.042 528.044 504.457 532.014 494.462 532.014H86.702C76.7075 532.014 67.1225 528.044 60.0553 520.977C52.9882 513.909 49.0179 504.324 49.0179 494.33V86.5694C49.0179 76.575 52.9882 66.9899 60.0553 59.9228C67.1225 52.8556 76.7075 48.8854 86.702 48.8854H494.462C504.457 48.8854 514.042 52.8556 521.109 59.9228C528.176 66.9899 532.146 76.575 532.146 86.5694V494.33Z" fill="white"/>
<path d="M290.582 145.511C261.916 145.511 233.894 154.012 210.059 169.938C186.224 185.864 167.646 208.5 156.676 234.984C145.706 261.468 142.836 290.61 148.429 318.726C154.021 346.841 167.825 372.667 188.095 392.937C208.365 413.207 234.191 427.011 262.306 432.603C290.421 438.196 319.564 435.326 346.048 424.355C372.532 413.385 395.168 394.808 411.094 370.973C427.02 347.138 435.521 319.116 435.521 290.45C435.521 252.01 420.251 215.144 393.069 187.963C365.888 160.781 329.022 145.511 290.582 145.511ZM290.582 387.075C271.471 387.075 252.79 381.408 236.9 370.791C221.01 360.174 208.625 345.083 201.312 327.427C193.998 309.771 192.085 290.342 195.813 271.599C199.541 252.855 208.744 235.638 222.257 222.125C235.771 208.612 252.988 199.409 271.731 195.681C290.475 191.952 309.903 193.866 327.559 201.179C345.215 208.493 360.306 220.877 370.924 236.767C381.541 252.657 387.208 271.339 387.208 290.45C387.208 316.076 377.028 340.654 358.907 358.774C340.786 376.895 316.209 387.075 290.582 387.075Z" fill="white"/>
<path d="M447.597 169.664C467.609 169.664 483.832 153.441 483.832 133.429C483.832 113.417 467.609 97.1945 447.597 97.1945C427.585 97.1945 411.363 113.417 411.363 133.429C411.363 153.441 427.585 169.664 447.597 169.664Z" fill="white"/>
</svg>
