<svg width="580" height="581" viewBox="0 0 580 581" fill="none" xmlns="http://www.w3.org/2000/svg">
<path d="M579.852 580.325V580.301H579.997V367.678C579.997 263.661 557.604 183.535 436.002 183.535C377.544 183.535 338.314 215.614 322.298 246.027H320.607V193.246H205.31V580.301H325.366V388.645C325.366 338.183 334.932 289.387 397.424 289.387C458.998 289.387 459.916 346.976 459.916 391.882V580.325H579.852Z" fill="white"/>
<path d="M9.81836 193.273H130.02V580.328H9.81836V193.273Z" fill="white"/>
<path d="M69.8683 0.57251C31.4357 0.57251 0.25 31.7582 0.25 70.1908C0.25 108.623 31.4357 140.461 69.8683 140.461C108.301 140.461 139.487 108.623 139.487 70.1908C139.462 31.7582 108.277 0.57251 69.8683 0.57251V0.57251Z" fill="white"/>
</svg>
