<svg width="602" height="1098" viewBox="0 0 602 1098" fill="none" xmlns="http://www.w3.org/2000/svg">
<path fill-rule="evenodd" clip-rule="evenodd" d="M527.675 0H74.3125C33.437 0 0 33.4106 0 74.254V1023.73C0 1064.58 33.437 1097.99 74.3125 1097.99H527.675C568.551 1097.99 602 1064.58 602 1023.73V74.254C601.988 33.4106 568.551 0 527.675 0ZM300.994 1034.13C275.437 1034.13 254.607 1013.31 254.607 987.784C254.607 962.26 275.45 941.433 300.994 941.433C326.538 941.433 347.381 962.26 347.381 987.784C347.381 1013.31 326.55 1034.13 300.994 1034.13ZM556.644 894.053H45.3436V96.6749H556.644V894.053Z" fill="white"/>
</svg>
