<svg width="706" height="579" viewBox="0 0 706 579" fill="none" xmlns="http://www.w3.org/2000/svg">
<path d="M10.3624 515.008C76.4126 556.877 153.283 579 232.65 579C348.877 579 455.384 534.399 532.581 453.421C606.449 375.918 647.084 271.779 645.063 166.095C673.064 142.161 706 96.4611 706 51.919C706 34.8446 687.451 24.006 672.41 32.7065C646.103 48.1478 622.114 52.1863 597.442 45.2674C547.057 -3.78824 472.06 -14.122 408.863 19.9081C353.633 49.6028 322.927 103.944 325.691 163.334C232.383 151.96 146.179 105.221 86.0734 32.5878C76.2045 20.7396 57.4774 22.1352 49.6299 35.5572C20.6772 85.088 20.9744 142.488 46.152 188.841C34.1726 190.95 26.7709 201.016 26.7709 211.914C26.7709 258.505 47.7572 301.325 81.5551 330.544C75.2533 336.602 73.1725 345.6 75.8478 353.617C90.7106 398.219 124.36 433.08 166.422 450.541C120.674 472.366 70.0811 479.642 25.0468 474.118C1.742 470.971 -9.7618 502.269 10.3624 515.008V515.008ZM238.744 458.172C255.42 445.374 246.562 418.708 225.635 418.263C188.775 417.491 155.215 399.347 134.318 370.81C144.395 370.157 154.829 368.613 164.757 365.941C187.378 359.823 186.308 327.219 163.33 322.616C121.625 314.242 88.8973 283.894 76.6207 244.816C87.8272 247.577 99.2418 249.122 110.627 249.329C133.188 249.448 141.72 220.555 123.32 208.47C81.8524 181.18 64.1657 132.986 75.8775 87.6714C148.289 160.958 246.532 205.114 350.453 210.103C365.345 211.023 376.522 197.037 373.252 182.873C359.132 121.731 393.317 78.8818 430.028 59.1348C466.353 39.5363 524.674 33.4192 569.381 80.2775C582.669 94.2637 627.495 94.7982 650.294 89.4828C640.069 108.725 624.344 126.987 609.63 137.262C603.358 141.656 599.761 148.961 600.147 156.593C604.933 254.14 568.549 351.123 500.329 422.657C431.603 494.726 336.571 534.428 232.68 534.428C191.361 534.428 150.845 527.717 112.559 514.77C158.336 505.921 201.825 486.56 238.744 458.172V458.172Z" fill="white"/>
</svg>
