<svg width="792" height="313" viewBox="0 0 792 313" fill="none" xmlns="http://www.w3.org/2000/svg">
<path d="M155.9 176.91C165.874 176.91 173.96 168.811 173.96 158.82C173.96 148.829 165.874 140.73 155.9 140.73C145.926 140.73 137.84 148.829 137.84 158.82C137.84 168.811 145.926 176.91 155.9 176.91Z" fill="#003474"/>
<path d="M187.6 143.46C196.453 143.46 203.63 136.27 203.63 127.4C203.63 118.53 196.453 111.34 187.6 111.34C178.747 111.34 171.57 118.53 171.57 127.4C171.57 136.27 178.747 143.46 187.6 143.46Z" fill="#003474"/>
<path d="M187.6 208.09C196.453 208.09 203.63 200.9 203.63 192.03C203.63 183.16 196.453 175.97 187.6 175.97C178.747 175.97 171.57 183.16 171.57 192.03C171.57 200.9 178.747 208.09 187.6 208.09Z" fill="#003474"/>
<path d="M123.35 208.09C132.203 208.09 139.38 200.9 139.38 192.03C139.38 183.16 132.203 175.97 123.35 175.97C114.497 175.97 107.32 183.16 107.32 192.03C107.32 200.9 114.497 208.09 123.35 208.09Z" fill="#003474"/>
<path d="M123.35 143.46C132.203 143.46 139.38 136.27 139.38 127.4C139.38 118.53 132.203 111.34 123.35 111.34C114.497 111.34 107.32 118.53 107.32 127.4C107.32 136.27 114.497 143.46 123.35 143.46Z" fill="#003474"/>
<path d="M156.12 118.2C163.548 118.2 169.57 112.169 169.57 104.73C169.57 97.2907 163.548 91.26 156.12 91.26C148.692 91.26 142.67 97.2907 142.67 104.73C142.67 112.169 148.692 118.2 156.12 118.2Z" fill="#003474"/>
<path d="M101.62 174.03C109.048 174.03 115.07 167.999 115.07 160.56C115.07 153.121 109.048 147.09 101.62 147.09C94.1918 147.09 88.17 153.121 88.17 160.56C88.17 167.999 94.1918 174.03 101.62 174.03Z" fill="#003474"/>
<path d="M65.48 170.12C71.4723 170.12 76.33 165.253 76.33 159.25C76.33 153.247 71.4723 148.38 65.48 148.38C59.4877 148.38 54.63 153.247 54.63 159.25C54.63 165.253 59.4877 170.12 65.48 170.12Z" fill="#003474"/>
<path d="M155.79 79.65C161.782 79.65 166.64 74.7833 166.64 68.78C166.64 62.7767 161.782 57.91 155.79 57.91C149.798 57.91 144.94 62.7767 144.94 68.78C144.94 74.7833 149.798 79.65 155.79 79.65Z" fill="#003474"/>
<path d="M246.1 170.12C252.092 170.12 256.95 165.253 256.95 159.25C256.95 153.247 252.092 148.38 246.1 148.38C240.108 148.38 235.25 153.247 235.25 159.25C235.25 165.253 240.108 170.12 246.1 170.12Z" fill="#003474"/>
<path d="M155.79 259.29C161.782 259.29 166.64 254.423 166.64 248.42C166.64 242.417 161.782 237.55 155.79 237.55C149.798 237.55 144.94 242.417 144.94 248.42C144.94 254.423 149.798 259.29 155.79 259.29Z" fill="#003474"/>
<path d="M209.99 172.73C217.418 172.73 223.44 166.699 223.44 159.26C223.44 151.821 217.418 145.79 209.99 145.79C202.562 145.79 196.54 151.821 196.54 159.26C196.54 166.699 202.562 172.73 209.99 172.73Z" fill="#003474"/>
<path d="M156.12 226.4C163.416 226.4 169.33 220.477 169.33 213.17C169.33 205.863 163.416 199.94 156.12 199.94C148.824 199.94 142.91 205.863 142.91 213.17C142.91 220.477 148.824 226.4 156.12 226.4Z" fill="#003474"/>
<path d="M308.939 148.57C311.066 148.457 312.379 148.242 312.877 147.925C313.216 147.699 313.748 146.839 314.472 145.345C315.853 142.403 317.618 138.318 319.768 133.09L331.786 103.656H336.776L352.121 140.117C354.113 144.847 355.335 147.439 355.788 147.891C356.263 148.344 357.7 148.65 360.099 148.808V151.66C356.41 151.501 352.925 151.422 349.643 151.422C345.728 151.422 342.004 151.501 338.474 151.66V148.808C341.167 148.695 342.717 148.548 343.125 148.367C343.555 148.163 343.77 147.812 343.77 147.314C343.77 146.884 343.295 145.413 342.344 142.901L340.103 137.096C337.297 137.05 334.162 137.028 330.7 137.028C327.69 137.028 324.951 137.05 322.484 137.096L320.99 141C320.583 142.064 320.085 143.648 319.497 145.753C319.361 146.228 319.293 146.658 319.293 147.043C319.293 147.563 319.508 147.937 319.938 148.163C320.391 148.367 321.986 148.582 324.725 148.808V151.66C322.507 151.501 319.746 151.422 316.441 151.422C313.295 151.422 310.794 151.501 308.939 151.66V148.57ZM331.209 115.674L324.046 133.09C326.128 133.203 328.425 133.26 330.937 133.26C333.563 133.26 336.075 133.203 338.474 133.09L331.209 115.674ZM408.136 144.293L408.985 145.074C408.397 146.205 407.876 147.359 407.423 148.536C404.798 149.917 402.263 150.89 399.819 151.456C397.397 152.044 394.602 152.339 391.434 152.339C385.504 152.339 380.491 151.298 376.394 149.215C372.298 147.133 369.141 144.202 366.923 140.423C364.727 136.643 363.63 132.309 363.63 127.42C363.63 120.382 366.119 114.622 371.098 110.141C376.1 105.637 382.992 103.385 391.773 103.385C394.693 103.385 397.578 103.645 400.43 104.166C403.304 104.686 406.156 105.478 408.985 106.542L409.223 107.051C408.815 108.273 408.532 109.45 408.374 110.582C408.08 112.551 407.853 114.995 407.695 117.915H404.843C404.708 114.339 404.572 112.381 404.436 112.042C404.3 111.68 403.678 111.08 402.569 110.242C401.46 109.382 399.955 108.692 398.054 108.171C396.175 107.628 394.093 107.357 391.807 107.357C386.375 107.357 382.053 109.032 378.839 112.381C375.648 115.731 374.052 120.393 374.052 126.368C374.052 132.841 375.976 138.08 379.823 142.086C383.376 145.798 388.254 147.654 394.455 147.654C396.854 147.654 399.095 147.405 401.177 146.907C403.282 146.409 405.602 145.538 408.136 144.293ZM433.394 137.299H436.382C436.404 140.649 436.506 142.618 436.687 143.206C436.891 143.772 437.547 144.53 438.656 145.481C439.765 146.409 441.202 147.167 442.968 147.756C444.733 148.344 446.543 148.638 448.399 148.638C451.591 148.638 454.137 147.789 456.038 146.092C457.962 144.395 458.923 142.279 458.923 139.744C458.923 137.413 458.29 135.625 457.022 134.38C455.732 133.135 453.288 132.252 449.689 131.732C444.348 130.962 440.738 130.125 438.86 129.22C437.004 128.314 435.533 126.956 434.446 125.146C433.383 123.335 432.851 121.162 432.851 118.628C432.851 114.373 434.345 110.774 437.332 107.832C440.342 104.867 445.14 103.385 451.726 103.385C454.306 103.385 456.592 103.577 458.584 103.962C460.598 104.347 462.612 104.98 464.627 105.863L464.966 106.678C464.604 108.104 464.344 109.394 464.185 110.548C464.05 111.702 463.925 113.694 463.812 116.523H460.858C460.745 113.037 460.576 111.08 460.349 110.65C459.919 109.903 458.822 109.122 457.056 108.307C455.314 107.47 453.311 107.051 451.047 107.051C447.947 107.051 445.536 107.809 443.816 109.326C442.119 110.819 441.27 112.755 441.27 115.131C441.27 116.579 441.621 117.847 442.323 118.933C443.024 119.997 443.997 120.789 445.242 121.31C446.51 121.808 449.214 122.385 453.356 123.041C457.113 123.607 459.659 124.161 460.994 124.704C463.19 125.587 464.853 126.934 465.985 128.744C467.116 130.555 467.682 132.841 467.682 135.602C467.682 140.4 465.849 144.395 462.182 147.586C458.516 150.754 453.503 152.339 447.143 152.339C444.314 152.339 441.745 152.067 439.437 151.524C437.128 150.981 434.741 150.087 432.274 148.842C432.681 147.258 432.953 145.82 433.089 144.53C433.27 142.742 433.371 140.332 433.394 137.299ZM473.827 135.5C473.827 130.136 475.083 126.108 477.595 123.414C480.605 120.223 484.951 118.628 490.631 118.628C496.289 118.628 500.42 119.906 503.023 122.464C505.625 125.021 506.927 129.061 506.927 134.583C506.927 140.264 505.422 144.644 502.412 147.722C499.424 150.8 495.26 152.339 489.918 152.339C484.668 152.339 480.673 150.901 477.935 148.027C475.196 145.153 473.827 140.977 473.827 135.5ZM483.231 133.158C483.231 139.178 484 143.467 485.539 146.024C486.739 147.993 488.538 148.978 490.937 148.978C493.042 148.978 494.66 148.14 495.792 146.466C496.946 144.791 497.523 141.747 497.523 137.333C497.523 131.268 496.821 127.07 495.418 124.738C494.264 122.883 492.465 121.955 490.02 121.955C487.916 121.955 486.252 122.803 485.03 124.501C483.83 126.198 483.231 129.084 483.231 133.158ZM511.68 106.135V104.166C514.893 103.736 517.428 103.294 519.284 102.842C521.14 102.389 523.143 101.744 525.293 100.907L526.176 101.653C525.836 109.733 525.666 121.015 525.666 135.5C525.666 138.42 525.712 141.373 525.802 144.361C525.847 146.262 525.949 147.371 526.108 147.688C526.289 147.982 526.56 148.22 526.922 148.401C527.307 148.582 528.665 148.717 530.996 148.808V151.626L527.432 151.524C525.214 151.456 523.347 151.422 521.83 151.422L511.68 151.626V148.808L514.192 148.672C515.323 148.627 516.048 148.423 516.364 148.061C516.704 147.676 516.908 146.25 516.975 143.784C517.089 140.366 517.145 135.511 517.145 129.22L517.111 114.724C517.089 110.31 516.964 107.821 516.738 107.255C516.647 106.983 516.478 106.78 516.229 106.644C515.821 106.395 514.305 106.225 511.68 106.135ZM534.221 124.127V121.513C537.843 121.174 541.226 120.529 544.372 119.578L547.733 118.39C548.14 118.39 548.344 118.65 548.344 119.171L548.208 121.174C547.823 126.379 547.631 131.404 547.631 136.247C547.631 139.37 547.789 141.452 548.106 142.494C548.423 143.512 548.989 144.304 549.804 144.87C550.641 145.436 551.75 145.719 553.131 145.719C554.738 145.719 556.141 145.277 557.34 144.395C558.563 143.512 559.309 142.539 559.581 141.475C559.875 140.411 560.022 137.379 560.022 132.377C560.022 128.371 559.954 126.028 559.819 125.349C559.728 124.987 559.57 124.738 559.343 124.603C559.004 124.422 557.465 124.263 554.726 124.127V121.513C559.366 120.993 562.772 120.382 564.945 119.68L568.543 118.39C568.928 118.39 569.121 118.628 569.121 119.103L569.053 120.02C568.668 123.958 568.476 131.098 568.476 141.441C568.476 144.61 568.566 146.601 568.747 147.416C568.86 147.801 569.041 148.072 569.29 148.231C569.652 148.435 571.078 148.627 573.568 148.808V151.626C570.965 151.49 568.385 151.422 565.828 151.422C563.745 151.422 561.81 151.49 560.022 151.626L559.717 151.015C559.83 149.883 559.932 148.106 560.022 145.685C557.917 147.382 555.881 149.249 553.912 151.286C552.305 151.988 550.72 152.339 549.159 152.339C547.077 152.339 545.266 151.92 543.727 151.083C542.188 150.245 541.045 149.159 540.298 147.823C539.574 146.466 539.212 144.564 539.212 142.12L539.28 138.42C539.348 136.134 539.382 134.278 539.382 132.852C539.382 128.824 539.302 126.413 539.144 125.621C539.031 125.101 538.793 124.738 538.431 124.535C538.069 124.308 536.666 124.173 534.221 124.127ZM576.182 124.365L580.697 121.411C580.652 117.406 580.55 113.897 580.391 110.887C583.469 109.937 586.378 108.783 589.116 107.425L590.135 108.205C589.637 111.487 589.297 115.889 589.116 121.411C590.157 121.57 591.187 121.649 592.206 121.649C594.514 121.649 596.585 121.502 598.418 121.208L598.724 121.411L598.418 122.634C598.079 123.901 597.83 125.067 597.671 126.13C595.023 125.927 593.077 125.825 591.832 125.825C590.904 125.825 589.999 125.881 589.116 125.995C589.071 128.28 589.048 130.295 589.048 132.037C589.048 139.642 589.275 143.965 589.727 145.006C590.18 146.047 591.255 146.567 592.952 146.567C593.45 146.567 593.982 146.511 594.548 146.398C595.136 146.284 595.759 146.126 596.415 145.922L596.992 147.212C595.634 148.729 594.31 150.302 593.02 151.931C592.183 152.067 591.413 152.169 590.712 152.237C590.01 152.305 589.365 152.339 588.777 152.339C586.876 152.339 585.28 152.01 583.99 151.354C582.723 150.698 581.795 149.849 581.206 148.808C580.64 147.767 580.357 146.217 580.357 144.157C580.357 143.071 580.414 140.219 580.527 135.602C580.64 131.551 580.697 128.348 580.697 125.995L578.966 125.927C578.241 125.927 577.313 125.995 576.182 126.13V124.365ZM610.164 102.4C611.613 102.4 612.846 102.921 613.865 103.962C614.906 104.98 615.426 106.225 615.426 107.696C615.426 109.145 614.906 110.389 613.865 111.431C612.846 112.449 611.602 112.958 610.13 112.958C608.682 112.958 607.437 112.449 606.396 111.431C605.378 110.389 604.868 109.145 604.868 107.696C604.868 106.225 605.378 104.98 606.396 103.962C607.437 102.921 608.693 102.4 610.164 102.4ZM600.693 151.626V148.808C603.25 148.717 604.721 148.559 605.106 148.333C605.513 148.106 605.774 147.473 605.887 146.432C606.068 145.006 606.158 141.86 606.158 136.994C606.158 134.889 606.124 132.943 606.057 131.155L605.955 127.183C605.955 125.87 605.808 125.067 605.513 124.772C605.242 124.456 604.484 124.274 603.239 124.229L600.693 124.127V121.513C606.147 121.106 610.64 120.144 614.17 118.628L615.019 119.307C614.702 123.629 614.544 129.921 614.544 138.182C614.544 142.957 614.623 145.843 614.781 146.839C614.895 147.541 615.098 147.993 615.392 148.197C615.709 148.401 617.203 148.604 619.874 148.808V151.626C615.777 151.49 612.609 151.422 610.368 151.422C609.169 151.422 605.943 151.49 600.693 151.626ZM624.491 135.5C624.491 130.136 625.747 126.108 628.259 123.414C631.269 120.223 635.614 118.628 641.295 118.628C646.953 118.628 651.084 119.906 653.686 122.464C656.289 125.021 657.591 129.061 657.591 134.583C657.591 140.264 656.085 144.644 653.075 147.722C650.088 150.8 645.924 152.339 640.582 152.339C635.332 152.339 631.337 150.901 628.598 148.027C625.86 145.153 624.491 140.977 624.491 135.5ZM633.894 133.158C633.894 139.178 634.664 143.467 636.203 146.024C637.402 147.993 639.202 148.978 641.601 148.978C643.706 148.978 645.324 148.14 646.455 146.466C647.61 144.791 648.187 141.747 648.187 137.333C648.187 131.268 647.485 127.07 646.082 124.738C644.928 122.883 643.128 121.955 640.684 121.955C638.579 121.955 636.916 122.803 635.694 124.501C634.494 126.198 633.894 129.084 633.894 133.158ZM662.343 151.626V148.808C664.81 148.672 666.202 148.48 666.519 148.231C666.836 147.959 667.028 147.371 667.096 146.466C667.232 144.18 667.3 140.151 667.3 134.38C667.3 131.528 667.266 129.073 667.198 127.013C667.153 125.746 667.062 124.999 666.926 124.772C666.813 124.591 666.632 124.456 666.383 124.365C666.134 124.274 664.788 124.195 662.343 124.127V121.513C663.565 121.513 665.467 121.253 668.047 120.732C670.649 120.212 672.833 119.612 674.599 118.933L675.515 118.628C675.832 118.628 675.991 118.888 675.991 119.408L675.957 119.714C675.889 120.348 675.855 121.977 675.855 124.603L681.117 120.189C681.773 119.623 682.452 119.239 683.154 119.035C684.15 118.763 685.36 118.628 686.786 118.628C689.185 118.628 691.143 119.046 692.659 119.884C694.198 120.699 695.319 121.841 696.02 123.313C696.745 124.761 697.107 127.024 697.107 130.102C697.107 131.46 697.073 133.033 697.005 134.821C696.892 138.488 696.835 141.656 696.835 144.327C696.835 145.843 696.96 146.896 697.209 147.484C697.39 147.891 697.639 148.163 697.955 148.299C698.295 148.435 699.54 148.604 701.69 148.808V151.626L697.514 151.49L694.832 151.422L687.839 151.626L687.465 151.184C688.054 146.884 688.348 142.471 688.348 137.944C688.348 132.196 687.997 128.654 687.296 127.319C686.39 125.598 684.738 124.738 682.339 124.738C680.8 124.738 679.465 125.134 678.333 125.927C677.201 126.696 676.466 127.522 676.126 128.405C675.968 128.767 675.889 129.91 675.889 131.834C675.889 140.027 675.923 144.723 675.991 145.922C676.059 147.099 676.251 147.823 676.568 148.095C676.975 148.435 678.492 148.672 681.117 148.808V151.626C677.179 151.49 673.852 151.422 671.136 151.422C669.529 151.422 666.598 151.49 662.343 151.626ZM709.023 140.592C709.136 143.512 709.283 145.142 709.464 145.481C709.962 146.409 710.89 147.224 712.248 147.925C713.628 148.627 715.224 148.978 717.035 148.978C719.252 148.978 720.905 148.525 721.991 147.62C723.1 146.714 723.654 145.515 723.654 144.021C723.654 142.731 723.258 141.713 722.466 140.966C721.674 140.219 719.977 139.563 717.374 138.997C713.436 138.137 710.867 137.39 709.668 136.756C708.491 136.1 707.552 135.138 706.85 133.871C706.148 132.603 705.798 131.087 705.798 129.321C705.798 127.239 706.318 125.395 707.359 123.788C708.4 122.181 709.894 120.925 711.84 120.02C713.809 119.092 716.401 118.628 719.615 118.628C722.964 118.628 726.076 119.171 728.95 120.257C728.634 122.09 728.419 124.942 728.305 128.812H725.623C725.488 126.368 725.295 124.931 725.046 124.501C724.707 123.844 724.062 123.29 723.111 122.837C721.799 122.226 720.395 121.921 718.902 121.921C717.001 121.921 715.518 122.351 714.454 123.211C713.413 124.048 712.893 125.112 712.893 126.402C712.893 127.601 713.368 128.552 714.319 129.254C715.269 129.978 717.532 130.668 721.108 131.324C723.575 131.777 725.284 132.196 726.235 132.581C727.819 133.26 729.018 134.255 729.833 135.568C730.671 136.858 731.089 138.499 731.089 140.491C731.089 144.315 729.607 147.246 726.642 149.283C723.677 151.32 720.146 152.339 716.05 152.339C714.692 152.339 713.187 152.18 711.535 151.863C709.883 151.546 708.083 151.083 706.137 150.471L705.628 149.894C705.899 147.925 706.069 144.825 706.137 140.592H709.023Z" fill="#003474"/>
<path d="M328.993 204.606C328.452 204.842 327.96 205.063 327.517 205.27C327.084 205.476 326.513 205.693 325.805 205.919C325.204 206.106 324.55 206.264 323.841 206.392C323.143 206.529 322.37 206.598 321.524 206.598C319.93 206.598 318.479 206.377 317.17 205.934C315.871 205.481 314.739 204.778 313.775 203.823C312.83 202.888 312.092 201.703 311.561 200.266C311.03 198.82 310.764 197.142 310.764 195.233C310.764 193.422 311.02 191.804 311.531 190.377C312.043 188.95 312.781 187.744 313.745 186.76C314.68 185.806 315.807 185.078 317.126 184.576C318.454 184.074 319.925 183.823 321.539 183.823C322.72 183.823 323.896 183.966 325.067 184.251C326.247 184.537 327.556 185.038 328.993 185.757V189.225H328.771C327.561 188.212 326.361 187.474 325.17 187.011C323.979 186.549 322.705 186.318 321.347 186.318C320.235 186.318 319.231 186.5 318.336 186.864C317.45 187.218 316.658 187.774 315.959 188.532C315.28 189.27 314.749 190.205 314.365 191.336C313.991 192.458 313.804 193.757 313.804 195.233C313.804 196.778 314.011 198.106 314.424 199.218C314.848 200.33 315.389 201.235 316.048 201.934C316.737 202.662 317.539 203.203 318.454 203.558C319.379 203.902 320.353 204.074 321.376 204.074C322.784 204.074 324.102 203.833 325.332 203.351C326.562 202.869 327.714 202.146 328.786 201.181H328.993V204.606ZM346.956 197.963C346.956 200.65 346.267 202.77 344.89 204.325C343.512 205.88 341.667 206.657 339.354 206.657C337.022 206.657 335.167 205.88 333.79 204.325C332.422 202.77 331.738 200.65 331.738 197.963C331.738 195.277 332.422 193.157 333.79 191.602C335.167 190.037 337.022 189.255 339.354 189.255C341.667 189.255 343.512 190.037 344.89 191.602C346.267 193.157 346.956 195.277 346.956 197.963ZM344.092 197.963C344.092 195.828 343.674 194.244 342.838 193.211C342.001 192.168 340.84 191.646 339.354 191.646C337.849 191.646 336.678 192.168 335.842 193.211C335.015 194.244 334.602 195.828 334.602 197.963C334.602 200.03 335.02 201.599 335.856 202.672C336.693 203.735 337.859 204.266 339.354 204.266C340.83 204.266 341.987 203.74 342.823 202.687C343.669 201.624 344.092 200.05 344.092 197.963ZM365.052 206.2H362.277V196.812C362.277 196.054 362.233 195.346 362.144 194.687C362.056 194.018 361.893 193.496 361.657 193.122C361.411 192.709 361.057 192.404 360.594 192.207C360.132 192 359.532 191.897 358.794 191.897C358.036 191.897 357.244 192.084 356.417 192.458C355.591 192.832 354.799 193.309 354.041 193.89V206.2H351.266V189.713H354.041V191.543C354.907 190.824 355.802 190.264 356.727 189.86C357.652 189.457 358.602 189.255 359.576 189.255C361.357 189.255 362.715 189.791 363.65 190.864C364.585 191.936 365.052 193.481 365.052 195.499V206.2ZM382.174 201.447C382.174 202.952 381.549 204.187 380.299 205.152C379.06 206.116 377.362 206.598 375.207 206.598C373.987 206.598 372.865 206.456 371.842 206.17C370.828 205.875 369.977 205.555 369.288 205.211V202.096H369.436C370.312 202.756 371.286 203.282 372.358 203.676C373.431 204.059 374.459 204.251 375.443 204.251C376.663 204.251 377.618 204.055 378.307 203.661C378.996 203.267 379.34 202.647 379.34 201.801C379.34 201.152 379.153 200.66 378.779 200.325C378.405 199.991 377.687 199.705 376.624 199.469C376.23 199.38 375.714 199.277 375.074 199.159C374.444 199.041 373.869 198.913 373.347 198.775C371.901 198.392 370.873 197.831 370.262 197.093C369.662 196.345 369.362 195.43 369.362 194.347C369.362 193.668 369.5 193.029 369.775 192.428C370.061 191.828 370.489 191.292 371.059 190.82C371.611 190.357 372.309 189.993 373.155 189.727C374.012 189.452 374.966 189.314 376.019 189.314C377.003 189.314 377.997 189.437 379 189.683C380.014 189.919 380.855 190.209 381.524 190.554V193.521H381.377C380.668 192.999 379.807 192.561 378.794 192.207C377.78 191.843 376.786 191.661 375.812 191.661C374.799 191.661 373.943 191.858 373.244 192.251C372.545 192.635 372.196 193.211 372.196 193.978C372.196 194.657 372.408 195.169 372.831 195.513C373.244 195.858 373.913 196.138 374.838 196.355C375.35 196.473 375.921 196.591 376.55 196.709C377.19 196.827 377.721 196.935 378.144 197.034C379.433 197.329 380.427 197.836 381.126 198.554C381.825 199.282 382.174 200.246 382.174 201.447ZM399.827 206.2H397.052V204.369C396.117 205.107 395.222 205.673 394.366 206.067C393.51 206.46 392.565 206.657 391.532 206.657C389.8 206.657 388.452 206.131 387.488 205.078C386.523 204.015 386.041 202.46 386.041 200.414V189.713H388.816V199.1C388.816 199.936 388.855 200.655 388.934 201.255C389.013 201.845 389.18 202.352 389.436 202.775C389.702 203.208 390.046 203.523 390.469 203.72C390.892 203.917 391.507 204.015 392.314 204.015C393.033 204.015 393.815 203.828 394.661 203.454C395.517 203.08 396.314 202.603 397.052 202.023V189.713H399.827V206.2ZM408.093 206.2H405.318V183.233H408.093V206.2ZM422.145 206.052C421.623 206.19 421.052 206.303 420.433 206.392C419.822 206.48 419.276 206.524 418.794 206.524C417.111 206.524 415.832 206.072 414.956 205.166C414.081 204.261 413.643 202.81 413.643 200.812V192.045H411.768V189.713H413.643V184.974H416.418V189.713H422.145V192.045H416.418V199.558C416.418 200.424 416.437 201.102 416.477 201.595C416.516 202.077 416.654 202.529 416.89 202.952C417.107 203.346 417.402 203.636 417.776 203.823C418.159 204 418.74 204.089 419.517 204.089C419.97 204.089 420.442 204.025 420.934 203.897C421.426 203.759 421.781 203.646 421.997 203.558H422.145V206.052ZM439.562 197.963C439.562 200.65 438.873 202.77 437.495 204.325C436.118 205.88 434.273 206.657 431.96 206.657C429.628 206.657 427.773 205.88 426.396 204.325C425.028 202.77 424.344 200.65 424.344 197.963C424.344 195.277 425.028 193.157 426.396 191.602C427.773 190.037 429.628 189.255 431.96 189.255C434.273 189.255 436.118 190.037 437.495 191.602C438.873 193.157 439.562 195.277 439.562 197.963ZM436.698 197.963C436.698 195.828 436.28 194.244 435.444 193.211C434.607 192.168 433.446 191.646 431.96 191.646C430.455 191.646 429.284 192.168 428.447 193.211C427.621 194.244 427.207 195.828 427.207 197.963C427.207 200.03 427.626 201.599 428.462 202.672C429.299 203.735 430.465 204.266 431.96 204.266C433.436 204.266 434.593 203.74 435.429 202.687C436.275 201.624 436.698 200.05 436.698 197.963ZM454.16 192.738H454.012C453.599 192.64 453.195 192.571 452.802 192.532C452.418 192.483 451.96 192.458 451.429 192.458C450.573 192.458 449.746 192.65 448.949 193.034C448.152 193.407 447.385 193.895 446.647 194.495V206.2H443.872V189.713H446.647V192.148C447.749 191.262 448.718 190.637 449.555 190.273C450.401 189.899 451.262 189.713 452.138 189.713C452.62 189.713 452.969 189.727 453.186 189.757C453.402 189.776 453.727 189.821 454.16 189.89V192.738ZM470.573 198.244H458.425C458.425 199.257 458.578 200.143 458.883 200.901C459.188 201.649 459.606 202.264 460.138 202.746C460.649 203.218 461.254 203.572 461.953 203.809C462.662 204.045 463.439 204.163 464.285 204.163C465.407 204.163 466.534 203.941 467.665 203.499C468.807 203.046 469.619 202.603 470.101 202.17H470.248V205.196C469.314 205.59 468.359 205.919 467.385 206.185C466.411 206.451 465.387 206.583 464.315 206.583C461.579 206.583 459.444 205.845 457.909 204.369C456.374 202.884 455.606 200.778 455.606 198.052C455.606 195.356 456.339 193.216 457.805 191.631C459.282 190.047 461.22 189.255 463.621 189.255C465.845 189.255 467.557 189.904 468.758 191.203C469.968 192.502 470.573 194.347 470.573 196.738V198.244ZM467.872 196.118C467.862 194.662 467.493 193.535 466.765 192.738C466.047 191.941 464.949 191.543 463.473 191.543C461.988 191.543 460.802 191.981 459.916 192.856C459.04 193.732 458.544 194.82 458.425 196.118H467.872ZM486.558 201.447C486.558 202.952 485.934 204.187 484.684 205.152C483.444 206.116 481.747 206.598 479.592 206.598C478.371 206.598 477.25 206.456 476.226 206.17C475.213 205.875 474.362 205.555 473.673 205.211V202.096H473.82C474.696 202.756 475.67 203.282 476.743 203.676C477.815 204.059 478.844 204.251 479.828 204.251C481.048 204.251 482.002 204.055 482.691 203.661C483.38 203.267 483.724 202.647 483.724 201.801C483.724 201.152 483.538 200.66 483.164 200.325C482.79 199.991 482.071 199.705 481.009 199.469C480.615 199.38 480.098 199.277 479.459 199.159C478.829 199.041 478.253 198.913 477.732 198.775C476.285 198.392 475.257 197.831 474.647 197.093C474.047 196.345 473.747 195.43 473.747 194.347C473.747 193.668 473.884 193.029 474.16 192.428C474.445 191.828 474.873 191.292 475.444 190.82C475.995 190.357 476.694 189.993 477.54 189.727C478.396 189.452 479.351 189.314 480.403 189.314C481.387 189.314 482.381 189.437 483.385 189.683C484.399 189.919 485.24 190.209 485.909 190.554V193.521H485.761C485.053 192.999 484.192 192.561 483.178 192.207C482.165 191.843 481.171 191.661 480.197 191.661C479.183 191.661 478.327 191.858 477.629 192.251C476.93 192.635 476.581 193.211 476.581 193.978C476.581 194.657 476.792 195.169 477.215 195.513C477.629 195.858 478.298 196.138 479.223 196.355C479.734 196.473 480.305 196.591 480.935 196.709C481.574 196.827 482.106 196.935 482.529 197.034C483.818 197.329 484.812 197.836 485.51 198.554C486.209 199.282 486.558 200.246 486.558 201.447ZM509.142 206.2H500.463V203.956H503.341V186.465H500.463V184.222H509.142V186.465H506.263V203.956H509.142V206.2ZM527.681 206.2H524.906V196.812C524.906 196.054 524.861 195.346 524.773 194.687C524.684 194.018 524.522 193.496 524.286 193.122C524.04 192.709 523.685 192.404 523.223 192.207C522.76 192 522.16 191.897 521.422 191.897C520.664 191.897 519.872 192.084 519.046 192.458C518.219 192.832 517.427 193.309 516.669 193.89V206.2H513.894V189.713H516.669V191.543C517.535 190.824 518.431 190.264 519.356 189.86C520.281 189.457 521.23 189.255 522.204 189.255C523.986 189.255 525.343 189.791 526.278 190.864C527.213 191.936 527.681 193.481 527.681 195.499V206.2ZM541.895 185.919H541.747C541.442 185.831 541.043 185.742 540.551 185.653C540.059 185.555 539.626 185.506 539.253 185.506C538.062 185.506 537.196 185.772 536.655 186.303C536.123 186.824 535.858 187.774 535.858 189.152V189.713H540.861V192.045H535.946V206.2H533.171V192.045H531.297V189.713H533.171V189.166C533.171 187.208 533.658 185.708 534.633 184.664C535.607 183.612 537.014 183.085 538.854 183.085C539.474 183.085 540.03 183.115 540.522 183.174C541.024 183.233 541.481 183.302 541.895 183.38V185.919ZM557.703 197.963C557.703 200.65 557.014 202.77 555.636 204.325C554.259 205.88 552.414 206.657 550.101 206.657C547.769 206.657 545.914 205.88 544.537 204.325C543.169 202.77 542.485 200.65 542.485 197.963C542.485 195.277 543.169 193.157 544.537 191.602C545.914 190.037 547.769 189.255 550.101 189.255C552.414 189.255 554.259 190.037 555.636 191.602C557.014 193.157 557.703 195.277 557.703 197.963ZM554.839 197.963C554.839 195.828 554.421 194.244 553.585 193.211C552.748 192.168 551.587 191.646 550.101 191.646C548.596 191.646 547.425 192.168 546.588 193.211C545.762 194.244 545.349 195.828 545.349 197.963C545.349 200.03 545.767 201.599 546.603 202.672C547.44 203.735 548.606 204.266 550.101 204.266C551.577 204.266 552.734 203.74 553.57 202.687C554.416 201.624 554.839 200.05 554.839 197.963ZM572.301 192.738H572.153C571.74 192.64 571.336 192.571 570.943 192.532C570.559 192.483 570.101 192.458 569.57 192.458C568.714 192.458 567.887 192.65 567.09 193.034C566.293 193.407 565.526 193.895 564.788 194.495V206.2H562.013V189.713H564.788V192.148C565.89 191.262 566.859 190.637 567.696 190.273C568.542 189.899 569.403 189.713 570.279 189.713C570.761 189.713 571.11 189.727 571.327 189.757C571.543 189.776 571.868 189.821 572.301 189.89V192.738ZM598.973 206.2H596.198V196.812C596.198 196.104 596.163 195.42 596.094 194.761C596.035 194.101 595.902 193.575 595.696 193.181C595.469 192.758 595.145 192.438 594.722 192.222C594.298 192.005 593.688 191.897 592.891 191.897C592.114 191.897 591.337 192.094 590.559 192.487C589.782 192.871 589.004 193.363 588.227 193.963C588.257 194.19 588.281 194.455 588.301 194.761C588.321 195.056 588.33 195.351 588.33 195.646V206.2H585.555V196.812C585.555 196.084 585.521 195.395 585.452 194.746C585.393 194.086 585.26 193.56 585.054 193.166C584.827 192.743 584.503 192.428 584.079 192.222C583.656 192.005 583.046 191.897 582.249 191.897C581.491 191.897 580.729 192.084 579.961 192.458C579.204 192.832 578.446 193.309 577.688 193.89V206.2H574.913V189.713H577.688V191.543C578.554 190.824 579.415 190.264 580.271 189.86C581.137 189.457 582.057 189.255 583.031 189.255C584.153 189.255 585.103 189.491 585.88 189.963C586.667 190.436 587.253 191.09 587.637 191.927C588.758 190.982 589.782 190.303 590.707 189.89C591.632 189.466 592.621 189.255 593.674 189.255C595.484 189.255 596.818 189.806 597.674 190.908C598.54 192 598.973 193.53 598.973 195.499V206.2ZM617.128 206.2H614.367V204.443C614.121 204.611 613.787 204.847 613.364 205.152C612.951 205.447 612.547 205.683 612.153 205.86C611.691 206.087 611.16 206.274 610.559 206.421C609.959 206.579 609.256 206.657 608.449 206.657C606.963 206.657 605.703 206.165 604.67 205.181C603.637 204.197 603.12 202.943 603.12 201.417C603.12 200.168 603.386 199.159 603.917 198.392C604.458 197.614 605.226 197.004 606.22 196.561C607.224 196.118 608.429 195.818 609.836 195.661C611.243 195.503 612.754 195.385 614.367 195.307V194.879C614.367 194.249 614.254 193.727 614.028 193.314C613.812 192.901 613.497 192.576 613.083 192.34C612.69 192.114 612.217 191.961 611.666 191.882C611.115 191.804 610.54 191.764 609.939 191.764C609.211 191.764 608.399 191.863 607.504 192.059C606.609 192.246 605.684 192.522 604.729 192.886H604.581V190.067C605.123 189.919 605.905 189.757 606.928 189.58C607.952 189.403 608.96 189.314 609.954 189.314C611.115 189.314 612.124 189.412 612.98 189.609C613.846 189.796 614.594 190.121 615.224 190.583C615.844 191.036 616.316 191.621 616.641 192.34C616.965 193.058 617.128 193.949 617.128 195.011V206.2ZM614.367 202.141V197.55C613.521 197.599 612.522 197.673 611.371 197.772C610.23 197.87 609.324 198.013 608.655 198.2C607.858 198.426 607.214 198.78 606.722 199.262C606.23 199.735 605.984 200.389 605.984 201.226C605.984 202.17 606.269 202.884 606.84 203.366C607.41 203.838 608.281 204.074 609.452 204.074C610.427 204.074 611.317 203.887 612.124 203.513C612.931 203.13 613.679 202.672 614.367 202.141ZM615.371 181.462L611.342 186.982H609.142L611.784 181.462H615.371ZM631.032 206.052C630.51 206.19 629.94 206.303 629.32 206.392C628.71 206.48 628.163 206.524 627.681 206.524C625.999 206.524 624.719 206.072 623.844 205.166C622.968 204.261 622.53 202.81 622.53 200.812V192.045H620.655V189.713H622.53V184.974H625.305V189.713H631.032V192.045H625.305V199.558C625.305 200.424 625.325 201.102 625.364 201.595C625.403 202.077 625.541 202.529 625.777 202.952C625.994 203.346 626.289 203.636 626.663 203.823C627.047 204 627.627 204.089 628.405 204.089C628.857 204.089 629.329 204.025 629.821 203.897C630.313 203.759 630.668 203.646 630.884 203.558H631.032V206.052ZM637.379 186.952H634.25V184.074H637.379V186.952ZM637.202 206.2H634.427V189.713H637.202V206.2ZM654.884 205.166C653.959 205.609 653.079 205.954 652.242 206.2C651.416 206.446 650.535 206.569 649.6 206.569C648.41 206.569 647.317 206.397 646.323 206.052C645.33 205.698 644.478 205.166 643.77 204.458C643.052 203.75 642.496 202.854 642.102 201.772C641.708 200.689 641.512 199.425 641.512 197.978C641.512 195.282 642.25 193.166 643.726 191.631C645.212 190.096 647.17 189.329 649.6 189.329C650.545 189.329 651.47 189.462 652.375 189.727C653.29 189.993 654.127 190.318 654.884 190.701V193.786H654.737C653.891 193.127 653.015 192.62 652.109 192.266C651.214 191.912 650.338 191.735 649.482 191.735C647.908 191.735 646.663 192.266 645.748 193.329C644.843 194.382 644.39 195.931 644.39 197.978C644.39 199.966 644.833 201.496 645.718 202.569C646.614 203.631 647.868 204.163 649.482 204.163C650.043 204.163 650.614 204.089 651.194 203.941C651.775 203.794 652.296 203.602 652.759 203.366C653.162 203.159 653.541 202.943 653.895 202.716C654.25 202.48 654.53 202.278 654.737 202.111H654.884V205.166ZM672.508 197.963C672.508 200.65 671.819 202.77 670.442 204.325C669.064 205.88 667.219 206.657 664.907 206.657C662.574 206.657 660.72 205.88 659.342 204.325C657.974 202.77 657.29 200.65 657.29 197.963C657.29 195.277 657.974 193.157 659.342 191.602C660.72 190.037 662.574 189.255 664.907 189.255C667.219 189.255 669.064 190.037 670.442 191.602C671.819 193.157 672.508 195.277 672.508 197.963ZM669.645 197.963C669.645 195.828 669.226 194.244 668.39 193.211C667.554 192.168 666.392 191.646 664.907 191.646C663.401 191.646 662.23 192.168 661.394 193.211C660.567 194.244 660.154 195.828 660.154 197.963C660.154 200.03 660.572 201.599 661.408 202.672C662.245 203.735 663.411 204.266 664.907 204.266C666.383 204.266 667.539 203.74 668.375 202.687C669.222 201.624 669.645 200.05 669.645 197.963ZM688.597 201.447C688.597 202.952 687.972 204.187 686.722 205.152C685.482 206.116 683.785 206.598 681.63 206.598C680.41 206.598 679.288 206.456 678.265 206.17C677.251 205.875 676.4 205.555 675.711 205.211V202.096H675.859C676.734 202.756 677.709 203.282 678.781 203.676C679.854 204.059 680.882 204.251 681.866 204.251C683.086 204.251 684.041 204.055 684.73 203.661C685.418 203.267 685.763 202.647 685.763 201.801C685.763 201.152 685.576 200.66 685.202 200.325C684.828 199.991 684.11 199.705 683.047 199.469C682.653 199.38 682.137 199.277 681.497 199.159C680.867 199.041 680.292 198.913 679.77 198.775C678.324 198.392 677.295 197.831 676.685 197.093C676.085 196.345 675.785 195.43 675.785 194.347C675.785 193.668 675.923 193.029 676.198 192.428C676.484 191.828 676.912 191.292 677.482 190.82C678.033 190.357 678.732 189.993 679.578 189.727C680.434 189.452 681.389 189.314 682.442 189.314C683.426 189.314 684.42 189.437 685.423 189.683C686.437 189.919 687.278 190.209 687.947 190.554V193.521H687.8C687.091 192.999 686.23 192.561 685.217 192.207C684.203 191.843 683.209 191.661 682.235 191.661C681.222 191.661 680.366 191.858 679.667 192.251C678.968 192.635 678.619 193.211 678.619 193.978C678.619 194.657 678.83 195.169 679.254 195.513C679.667 195.858 680.336 196.138 681.261 196.355C681.773 196.473 682.343 196.591 682.973 196.709C683.613 196.827 684.144 196.935 684.567 197.034C685.856 197.329 686.85 197.836 687.549 198.554C688.247 199.282 688.597 200.246 688.597 201.447Z" fill="#003474"/>
</svg>
