<?xml version="1.0" encoding="utf-8"?>
<!-- Generator: Adobe Illustrator 24.1.3, SVG Export Plug-In . SVG Version: 6.00 Build 0)  -->
<svg version="1.1" id="Layer_1" xmlns="http://www.w3.org/2000/svg" xmlns:xlink="http://www.w3.org/1999/xlink" x="0px" y="0px"
	 viewBox="0 0 792 313" style="enable-background:new 0 0 792 313;" xml:space="preserve">
<style type="text/css">
	.st0{fill:#FFFFFF;}
	.st1{fill:#E43D03;}
	.st2{fill:#003474;}
	.st3{font-family:'BookAntiqua-Bold';}
	.st4{font-size:69.5267px;}
	.st5{fill:none;}
	.st6{font-family:'Verdana';}
	.st7{font-size:30.229px;}
</style>
<g>
	<ellipse class="st1" cx="155.9" cy="158.82" rx="18.06" ry="18.09"/>
	<ellipse class="st2" cx="187.6" cy="127.4" rx="16.03" ry="16.06"/>
	<ellipse class="st2" cx="187.6" cy="192.03" rx="16.03" ry="16.06"/>
	<ellipse class="st2" cx="123.35" cy="192.03" rx="16.03" ry="16.06"/>
	<ellipse class="st2" cx="123.35" cy="127.4" rx="16.03" ry="16.06"/>
	<ellipse class="st1" cx="156.12" cy="104.73" rx="13.45" ry="13.47"/>
	<ellipse class="st1" cx="101.62" cy="160.56" rx="13.45" ry="13.47"/>
	<ellipse class="st1" cx="65.48" cy="159.25" rx="10.85" ry="10.87"/>
	<ellipse class="st1" cx="155.79" cy="68.78" rx="10.85" ry="10.87"/>
	<ellipse class="st1" cx="246.1" cy="159.25" rx="10.85" ry="10.87"/>
	<ellipse class="st1" cx="155.79" cy="248.42" rx="10.85" ry="10.87"/>
	<ellipse class="st1" cx="209.99" cy="159.26" rx="13.45" ry="13.47"/>
	<ellipse class="st1" cx="156.12" cy="213.17" rx="13.21" ry="13.23"/>
</g>
<text transform="matrix(1 0 0 1 306.7998 156.9487)" class="st2 st3 st4">AC Solutions</text>
<rect x="309.07" y="182.45" class="st5" width="451.92" height="44.02"/>
<text transform="matrix(1 0 0 1 309.0664 205.4287)" class="st1 st6 st7">Consultores Informáticos</text>
</svg>
