<svg xmlns="http://www.w3.org/2000/svg" xmlns:xlink="http://www.w3.org/1999/xlink" xml:space="preserve" style="shape-rendering:geometricPrecision;text-rendering:geometricPrecision;image-rendering:optimizeQuality;" viewBox="0 0 4.7794 4.6856" x="0px" y="0px" fill-rule="evenodd" clip-rule="evenodd"><defs><style type="text/css">
   
    .fil0 {fill:black}
   
  </style></defs><g><path class="fil0" d="M1.49223 0.138403c1.00602,0 2.01214,0 3.01816,0 0.358608,0 0.358608,0.605213 0,0.605213 -1.00602,0 -2.01214,0 -3.01816,0 -0.358608,0 -0.358608,-0.605213 0,-0.605213z"/><path class="fil0" d="M1.49223 1.57163c1.00602,0 2.01214,0 3.01816,0 0.358608,0 0.358608,0.605213 0,0.605213 -1.00602,0 -2.01214,0 -3.01816,0 -0.358608,0 -0.358608,-0.605213 0,-0.605213z"/><path class="fil0" d="M1.49223 3.00486c1.00602,0 2.01214,0 3.01816,0 0.358608,0 0.358608,0.605213 0,0.605213 -1.00602,0 -2.01214,0 -3.01816,0 -0.358608,0 -0.358608,-0.605213 0,-0.605213z"/><path class="fil0" d="M0.46561 0c0.257205,0 0.46561,0.197404 0.46561,0.441009 0,0.243605 -0.208404,0.441009 -0.46561,0.441009 -0.257205,0 -0.46561,-0.197404 -0.46561,-0.441009 0,-0.243605 0.208404,-0.441009 0.46561,-0.441009z"/><path class="fil0" d="M0.46561 1.43323c0.257205,0 0.46561,0.197404 0.46561,0.441009 0,0.243605 -0.208404,0.441009 -0.46561,0.441009 -0.257205,0 -0.46561,-0.197404 -0.46561,-0.441009 0,-0.243605 0.208404,-0.441009 0.46561,-0.441009z"/><path class="fil0" d="M0.46561 2.86646c0.257205,0 0.46561,0.197404 0.46561,0.441009 0,0.243605 -0.208404,0.441009 -0.46561,0.441009 -0.257205,0 -0.46561,-0.197404 -0.46561,-0.441009 0,-0.243605 0.208404,-0.441009 0.46561,-0.441009z"/></g><text x="0" y="18.74848" fill="#000000" font-size="5px" font-weight="bold" font-family="'Helvetica Neue', Helvetica, Arial-Unicode, Arial, Sans-serif">Created by Raden Situbondo</text><text x="0" y="23.74848" fill="#000000" font-size="5px" font-weight="bold" font-family="'Helvetica Neue', Helvetica, Arial-Unicode, Arial, Sans-serif">from the Noun Project</text></svg>